<svg width="445" height="84" viewBox="0 0 445 84" fill="none" xmlns="http://www.w3.org/2000/svg">
<path d="M45.0158 34.164C40.0841 29.2216 33.3687 26.5445 26.3383 26.5445C22.6658 26.5445 18.9932 27.2653 15.7404 28.7068V25H0.000893831L0.000893831 50.2848C0.000829308 51.044 3.15602e-05 50.968 0 51.7098L0.000893831 52.492V82.97H15.7404V51.0505C16.4749 45.9021 20.9869 41.9894 26.3383 41.9894C32.2144 41.9894 37.0412 46.7259 37.0412 52.492V82.97H52.7807V52.492C52.7807 45.5933 50.0525 39.1064 45.0158 34.164Z" fill="#FFE5DB"/>
<path d="M122.218 25.166H106.774V28.3578C102.759 26.2986 98.2288 25.166 93.5955 25.166C89.5801 25.166 85.7706 25.9897 82.167 27.5341C78.6663 28.9756 75.4746 31.1377 72.7976 33.8147C70.1206 36.4916 67.9585 39.5804 66.5171 43.0811C64.9726 46.7876 64.252 50.5972 64.252 54.5096C64.252 58.5251 64.9726 62.3346 66.5171 65.9382C67.9585 69.4388 70.1206 72.6306 72.7976 75.3076C75.4746 77.9845 78.6663 80.1467 82.167 81.5881C85.7706 83.1325 89.5801 83.8532 93.5955 83.8532C98.1258 83.8532 102.759 82.8236 106.774 80.7644V83.1325H122.218V25.166ZM100.597 66.556C98.4347 67.7915 96.0666 68.4092 93.5955 68.4092C85.8736 68.4092 79.6959 62.2316 79.6959 54.5096C79.6959 46.8906 85.8736 40.61 93.5955 40.61C96.2725 40.61 98.8465 41.4337 101.112 42.8752C103.274 44.3166 105.024 46.2728 106.157 48.6409C106.98 50.4942 107.392 52.4504 107.392 54.6126C107.392 56.9807 106.774 59.4517 105.539 61.5109C104.406 63.5701 102.656 65.3204 100.597 66.556Z" fill="#FFD0BF"/>
<path d="M137.452 28.8726V83.1325H152.999V23.7246L137.452 28.8726Z" fill="#FFBCA3"/>
<path d="M190.846 61.8198L204.54 83.1325H222.661L201.657 50.4942L223.999 25.7838H204.128L184.668 47.5084V0.146759H169.121V83.1325H184.668V68.5122L190.846 61.8198Z" fill="#FFA787"/>
<path d="M281.82 25.166H266.376V28.3578C262.36 26.2986 257.83 25.166 253.197 25.166C249.182 25.166 245.372 25.9897 241.768 27.5341C238.268 28.9756 235.076 31.1377 232.399 33.8147C229.722 36.4916 227.56 39.5804 226.118 43.0811C224.574 46.7876 223.853 50.5972 223.853 54.5096C223.853 58.5251 224.574 62.3346 226.118 65.9382C227.56 69.4388 229.722 72.6306 232.399 75.3076C235.076 77.9845 238.268 80.1467 241.768 81.5881C245.372 83.1325 249.182 83.8532 253.197 83.8532C257.727 83.8532 262.36 82.8236 266.376 80.7644V83.1325H281.82V25.166ZM260.198 66.556C258.036 67.7915 255.668 68.4092 253.197 68.4092C245.475 68.4092 239.297 62.2316 239.297 54.5096C239.297 46.8906 245.475 40.61 253.197 40.61C255.874 40.61 258.448 41.4337 260.713 42.8752C262.875 44.3166 264.626 46.2728 265.758 48.6409C266.582 50.4942 266.994 52.4504 266.994 54.6126C266.994 56.9807 266.376 59.4517 265.14 61.5109C264.008 63.5701 262.257 65.3204 260.198 66.556Z" fill="#FF936B"/>
<path d="M372.935 33.2999C368.199 28.5637 362.022 25.9897 355.432 25.9897C348.946 25.9897 342.974 28.4608 338.341 32.7851C333.707 28.4608 327.736 25.9897 321.352 25.9897C318.058 25.9897 314.866 26.6075 311.983 27.843V25.166H296.539V83.1325H311.983V50.8031C311.983 45.6551 316.204 41.4337 321.352 41.4337C326.397 41.4337 330.619 45.6551 330.619 50.8031V83.1325H346.063V50.8031C346.063 45.6551 350.284 41.4337 355.432 41.4337C360.477 41.4337 364.698 45.6551 364.698 50.8031V83.1325H380.142V50.8031C380.142 44.2136 377.568 37.9331 372.935 33.2999Z" fill="#FF7E4F"/>
<path d="M419.186 83.7503C425.981 83.7503 432.468 81.0733 437.307 76.2342C442.249 71.3951 444.926 64.9086 444.926 58.0103V25.7838H429.482V58.0103C429.482 63.7761 424.849 68.3063 419.186 68.3063C413.42 68.3063 408.89 63.7761 408.89 58.0103V25.7838H393.446V58.0103C393.446 64.9086 396.123 71.3951 400.962 76.2342C405.801 81.0733 412.288 83.7503 419.186 83.7503Z" fill="#FF6932"/>
</svg>
